<svg xmlns="http://www.w3.org/2000/svg" width="512" height="512" viewBox="0 0 512 512">
	<defs><linearGradient id="sky" x1="0" y1="0" x2="0" y2="1"><stop offset="0" stop-color="#bfe3fb"/><stop offset="1" stop-color="#78b2e4"/></linearGradient><filter id="soft" x="-50%" y="-50%" width="200%" height="200%"><feGaussianBlur stdDeviation="10"/></filter><filter id="shine" x="-50%" y="-50%" width="200%" height="200%"><feGaussianBlur stdDeviation="6"/></filter><linearGradient id="stack" x1="0" y1="0" x2="0" y2="1"><stop offset="0" stop-color="#f6d977"/><stop offset="0.6" stop-color="#e2ac48"/><stop offset="1" stop-color="#c98e30"/></linearGradient><linearGradient id="steel" x1="0" y1="0" x2="1" y2="0"><stop offset="0" stop-color="#8e99a8"/><stop offset="0.45" stop-color="#ffffff"/><stop offset="1" stop-color="#9aa6b4"/></linearGradient><clipPath id="dome"><path d="M104 372 Q104 168 256 156 Q408 168 408 372 Z"/></clipPath></defs>
	
	<rect width="512" height="512" fill="url(#sky)"/>
	<circle cx="96" cy="96" r="58" fill="#fff7d0" opacity="0.8" filter="url(#soft)"/>
	<circle cx="96" cy="96" r="36" fill="#fff8da"/>
	<ellipse cx="420" cy="92" rx="52" ry="16" fill="#ffffff" opacity="0.9"/><ellipse cx="444" cy="80" rx="30" ry="16" fill="#ffffff" opacity="0.9"/>
	<path d="M0 342 Q256 312 512 340 V512 H0 Z" fill="#86c25a"/>
	<path d="M0 380 Q256 356 512 384 V512 H0 Z" fill="#6aa846"/>
	<ellipse cx="256" cy="374" rx="170" ry="16" fill="#3f6d2a" opacity="0.45"/>
	<path d="M104 372 Q104 168 256 156 Q408 168 408 372 Z" fill="url(#stack)"/>
	<g transform="rotate(-22 330 210)">
		<path d="M321 70 Q330 58 339 70 L337 250 L330 290 L323 250 Z" fill="url(#steel)" stroke="#6f7b8a" stroke-width="2"/>
		<rect x="327" y="76" width="6" height="26" rx="3" fill="#2e5a8a"/>
	</g>
	<g clip-path="url(#dome)"><path d="M190.3 236.5 l10.8 -21.7" stroke="#e7b24a" stroke-width="2.4" stroke-linecap="round"/><path d="M214.2 284.3 l-5.9 -12.9" stroke="#c08a2c" stroke-width="2.0" stroke-linecap="round"/><path d="M326.6 367.9 l-1.2 -16.3" stroke="#e7b24a" stroke-width="2.5" stroke-linecap="round"/><path d="M337.2 368.3 l-8.4 -19.8" stroke="#e7b24a" stroke-width="3.0" stroke-linecap="round"/><path d="M300.3 321.8 l6.8 -25.5" stroke="#b07a22" stroke-width="2.4" stroke-linecap="round"/><path d="M384.8 299.8 l0.5 -28.8" stroke="#e7b24a" stroke-width="3.0" stroke-linecap="round"/><path d="M135.7 256.3 l-8.7 -20.8" stroke="#b07a22" stroke-width="2.8" stroke-linecap="round"/><path d="M371.8 304.8 l-9.6 -20.2" stroke="#fbe28c" stroke-width="2.9" stroke-linecap="round"/><path d="M278.5 286.7 l0.9 -18.1" stroke="#b07a22" stroke-width="2.3" stroke-linecap="round"/><path d="M307.9 262.1 l0.5 -22.9" stroke="#c08a2c" stroke-width="3.2" stroke-linecap="round"/><path d="M180.2 367.2 l1.8 -14.8" stroke="#b07a22" stroke-width="2.1" stroke-linecap="round"/><path d="M349.0 270.8 l-9.3 -14.6" stroke="#b07a22" stroke-width="2.1" stroke-linecap="round"/><path d="M330.0 354.3 l-2.4 -14.9" stroke="#fbe28c" stroke-width="2.5" stroke-linecap="round"/><path d="M168.7 264.4 l4.0 -15.7" stroke="#c08a2c" stroke-width="2.7" stroke-linecap="round"/><path d="M382.9 359.1 l-13.3 -14.3" stroke="#c08a2c" stroke-width="2.5" stroke-linecap="round"/><path d="M228.4 366.4 l20.0 -20.1" stroke="#c08a2c" stroke-width="2.7" stroke-linecap="round"/><path d="M262.8 208.7 l-6.2 -15.3" stroke="#e7b24a" stroke-width="1.9" stroke-linecap="round"/><path d="M269.7 283.5 l-7.8 -25.2" stroke="#e7b24a" stroke-width="2.3" stroke-linecap="round"/><path d="M385.6 319.4 l-2.9 -20.4" stroke="#e7b24a" stroke-width="2.1" stroke-linecap="round"/><path d="M179.1 257.6 l-9.5 -20.3" stroke="#b07a22" stroke-width="2.2" stroke-linecap="round"/><path d="M241.5 292.9 l-2.2 -20.7" stroke="#c08a2c" stroke-width="3.0" stroke-linecap="round"/><path d="M233.9 209.7 l-12.9 -23.1" stroke="#fbe28c" stroke-width="2.5" stroke-linecap="round"/><path d="M189.6 332.7 l15.6 -13.1" stroke="#fbe28c" stroke-width="2.8" stroke-linecap="round"/><path d="M350.7 262.2 l-11.3 -13.5" stroke="#e7b24a" stroke-width="2.6" stroke-linecap="round"/><path d="M333.4 210.7 l4.6 -18.5" stroke="#c08a2c" stroke-width="2.8" stroke-linecap="round"/><path d="M273.5 313.1 l-6.2 -15.8" stroke="#e7b24a" stroke-width="2.2" stroke-linecap="round"/><path d="M232.2 237.0 l-2.3 -29.1" stroke="#fbe28c" stroke-width="2.5" stroke-linecap="round"/><path d="M256.6 258.2 l4.1 -27.9" stroke="#c08a2c" stroke-width="1.9" stroke-linecap="round"/><path d="M262.4 225.4 l-11.9 -15.2" stroke="#c08a2c" stroke-width="2.0" stroke-linecap="round"/><path d="M344.3 318.7 l-8.5 -15.6" stroke="#c08a2c" stroke-width="2.6" stroke-linecap="round"/><path d="M256.9 266.6 l-5.2 -17.8" stroke="#e7b24a" stroke-width="2.6" stroke-linecap="round"/><path d="M190.9 337.4 l-3.2 -20.4" stroke="#e7b24a" stroke-width="2.4" stroke-linecap="round"/><path d="M327.3 313.7 l-19.7 -16.6" stroke="#b07a22" stroke-width="2.2" stroke-linecap="round"/><path d="M220.5 354.2 l-10.0 -27.3" stroke="#b07a22" stroke-width="2.9" stroke-linecap="round"/><path d="M157.8 369.4 l3.3 -22.6" stroke="#c08a2c" stroke-width="2.8" stroke-linecap="round"/><path d="M346.6 330.0 l-13.0 -14.0" stroke="#c08a2c" stroke-width="2.6" stroke-linecap="round"/><path d="M324.8 333.9 l-11.6 -18.1" stroke="#fbe28c" stroke-width="2.4" stroke-linecap="round"/><path d="M256.6 321.2 l8.3 -15.8" stroke="#b07a22" stroke-width="2.4" stroke-linecap="round"/><path d="M328.3 246.3 l3.4 -14.1" stroke="#e7b24a" stroke-width="1.9" stroke-linecap="round"/><path d="M327.3 297.6 l-14.7 -23.9" stroke="#b07a22" stroke-width="3.2" stroke-linecap="round"/><path d="M355.5 331.9 l-10.7 -14.2" stroke="#b07a22" stroke-width="2.8" stroke-linecap="round"/><path d="M248.5 223.4 l11.1 -20.9" stroke="#e7b24a" stroke-width="2.6" stroke-linecap="round"/><path d="M118.9 308.6 l6.1 -16.6" stroke="#c08a2c" stroke-width="2.8" stroke-linecap="round"/><path d="M351.5 255.4 l-2.3 -17.4" stroke="#b07a22" stroke-width="3.1" stroke-linecap="round"/><path d="M180.7 344.7 l8.0 -22.5" stroke="#fbe28c" stroke-width="2.2" stroke-linecap="round"/><path d="M196.0 363.9 l20.5 -21.8" stroke="#fbe28c" stroke-width="2.2" stroke-linecap="round"/><path d="M257.8 362.2 l0.7 -18.5" stroke="#fbe28c" stroke-width="2.0" stroke-linecap="round"/><path d="M318.4 274.5 l-4.4 -17.1" stroke="#c08a2c" stroke-width="2.9" stroke-linecap="round"/><path d="M113.0 325.7 l-9.1 -18.0" stroke="#fbe28c" stroke-width="2.5" stroke-linecap="round"/><path d="M300.2 360.5 l3.9 -19.6" stroke="#c08a2c" stroke-width="2.1" stroke-linecap="round"/><path d="M373.5 327.4 l-1.5 -14.3" stroke="#b07a22" stroke-width="2.2" stroke-linecap="round"/><path d="M367.6 312.7 l3.0 -29.2" stroke="#e7b24a" stroke-width="2.9" stroke-linecap="round"/><path d="M325.1 203.4 l-11.2 -23.9" stroke="#fbe28c" stroke-width="2.3" stroke-linecap="round"/><path d="M249.6 292.6 l15.8 -15.5" stroke="#e7b24a" stroke-width="1.9" stroke-linecap="round"/><path d="M205.3 194.7 l6.8 -24.2" stroke="#fbe28c" stroke-width="2.7" stroke-linecap="round"/><path d="M293.8 307.7 l-14.3 -13.3" stroke="#e7b24a" stroke-width="1.8" stroke-linecap="round"/><path d="M205.6 342.5 l7.0 -12.3" stroke="#fbe28c" stroke-width="2.6" stroke-linecap="round"/><path d="M312.2 214.4 l-9.9 -25.5" stroke="#c08a2c" stroke-width="3.1" stroke-linecap="round"/><path d="M383.6 280.4 l-4.9 -15.5" stroke="#e7b24a" stroke-width="2.8" stroke-linecap="round"/><path d="M338.9 313.2 l-8.5 -11.8" stroke="#b07a22" stroke-width="2.8" stroke-linecap="round"/><path d="M297.8 315.2 l1.0 -28.6" stroke="#b07a22" stroke-width="2.6" stroke-linecap="round"/><path d="M360.0 339.8 l9.8 -27.0" stroke="#e7b24a" stroke-width="2.9" stroke-linecap="round"/><path d="M208.8 321.3 l-1.6 -27.5" stroke="#e7b24a" stroke-width="2.4" stroke-linecap="round"/><path d="M195.8 328.1 l-4.0 -13.9" stroke="#c08a2c" stroke-width="2.7" stroke-linecap="round"/><path d="M224.0 324.7 l14.8 -21.2" stroke="#e7b24a" stroke-width="2.3" stroke-linecap="round"/><path d="M198.8 288.7 l-5.4 -26.6" stroke="#b07a22" stroke-width="2.9" stroke-linecap="round"/><path d="M286.7 322.9 l-16.6 -20.2" stroke="#e7b24a" stroke-width="2.5" stroke-linecap="round"/><path d="M304.4 253.8 l-18.9 -20.5" stroke="#b07a22" stroke-width="2.0" stroke-linecap="round"/><path d="M294.1 175.3 l-5.8 -27.2" stroke="#c08a2c" stroke-width="2.2" stroke-linecap="round"/><path d="M347.4 331.0 l-14.8 -24.9" stroke="#fbe28c" stroke-width="3.0" stroke-linecap="round"/><path d="M292.0 228.7 l-2.5 -25.6" stroke="#e7b24a" stroke-width="2.9" stroke-linecap="round"/><path d="M185.2 295.5 l0.9 -24.0" stroke="#fbe28c" stroke-width="2.8" stroke-linecap="round"/><path d="M257.2 184.9 l-12.6 -15.7" stroke="#e7b24a" stroke-width="3.2" stroke-linecap="round"/><path d="M170.3 364.4 l1.1 -17.3" stroke="#fbe28c" stroke-width="2.5" stroke-linecap="round"/><path d="M246.2 169.3 l-7.8 -20.4" stroke="#e7b24a" stroke-width="2.0" stroke-linecap="round"/><path d="M317.1 307.1 l-8.5 -16.4" stroke="#b07a22" stroke-width="2.7" stroke-linecap="round"/><path d="M260.3 300.1 l-9.4 -20.0" stroke="#e7b24a" stroke-width="2.7" stroke-linecap="round"/><path d="M153.0 254.7 l9.7 -20.4" stroke="#e7b24a" stroke-width="2.6" stroke-linecap="round"/><path d="M197.5 255.5 l3.8 -21.1" stroke="#c08a2c" stroke-width="3.1" stroke-linecap="round"/><path d="M150.2 368.5 l11.0 -26.2" stroke="#c08a2c" stroke-width="2.3" stroke-linecap="round"/><path d="M260.2 352.5 l7.6 -27.6" stroke="#c08a2c" stroke-width="2.8" stroke-linecap="round"/><path d="M301.0 297.6 l3.2 -28.1" stroke="#e7b24a" stroke-width="2.7" stroke-linecap="round"/><path d="M289.0 268.5 l-4.6 -14.4" stroke="#c08a2c" stroke-width="3.1" stroke-linecap="round"/><path d="M351.4 223.6 l-9.9 -16.4" stroke="#e7b24a" stroke-width="2.8" stroke-linecap="round"/><path d="M383.9 333.5 l-11.7 -21.5" stroke="#b07a22" stroke-width="2.6" stroke-linecap="round"/><path d="M208.0 338.4 l-7.2 -16.4" stroke="#e7b24a" stroke-width="1.9" stroke-linecap="round"/><path d="M224.6 209.6 l14.7 -15.6" stroke="#e7b24a" stroke-width="3.2" stroke-linecap="round"/><path d="M348.1 368.0 l2.1 -22.4" stroke="#c08a2c" stroke-width="1.8" stroke-linecap="round"/><path d="M281.0 173.2 l5.8 -21.0" stroke="#b07a22" stroke-width="2.8" stroke-linecap="round"/><path d="M216.4 189.0 l-2.2 -25.0" stroke="#e7b24a" stroke-width="2.8" stroke-linecap="round"/><path d="M310.5 271.4 l-1.6 -15.7" stroke="#b07a22" stroke-width="3.2" stroke-linecap="round"/><path d="M252.0 196.0 l0.4 -16.1" stroke="#c08a2c" stroke-width="2.0" stroke-linecap="round"/><path d="M174.2 351.1 l16.1 -13.5" stroke="#fbe28c" stroke-width="2.9" stroke-linecap="round"/><path d="M240.8 313.9 l5.1 -22.4" stroke="#e7b24a" stroke-width="3.2" stroke-linecap="round"/><path d="M159.1 222.3 l13.8 -18.8" stroke="#b07a22" stroke-width="2.3" stroke-linecap="round"/><path d="M282.9 234.5 l0.7 -16.5" stroke="#b07a22" stroke-width="3.0" stroke-linecap="round"/><path d="M344.0 333.2 l5.5 -14.3" stroke="#c08a2c" stroke-width="2.7" stroke-linecap="round"/><path d="M270.1 305.4 l-4.6 -20.6" stroke="#c08a2c" stroke-width="2.0" stroke-linecap="round"/><path d="M163.0 338.0 l7.0 -12.8" stroke="#c08a2c" stroke-width="3.1" stroke-linecap="round"/><path d="M338.4 265.3 l0.3 -25.0" stroke="#e7b24a" stroke-width="2.4" stroke-linecap="round"/><path d="M351.0 340.2 l7.9 -21.1" stroke="#fbe28c" stroke-width="2.4" stroke-linecap="round"/><path d="M321.7 235.7 l-5.6 -23.5" stroke="#b07a22" stroke-width="2.2" stroke-linecap="round"/><path d="M165.3 241.2 l-6.1 -14.5" stroke="#b07a22" stroke-width="2.7" stroke-linecap="round"/><path d="M226.7 333.7 l-13.9 -25.1" stroke="#b07a22" stroke-width="2.0" stroke-linecap="round"/><path d="M188.4 190.8 l10.4 -26.7" stroke="#fbe28c" stroke-width="1.8" stroke-linecap="round"/><path d="M171.4 275.7 l-5.4 -15.8" stroke="#c08a2c" stroke-width="2.4" stroke-linecap="round"/><path d="M190.8 189.2 l4.7 -25.3" stroke="#fbe28c" stroke-width="2.2" stroke-linecap="round"/><path d="M331.0 302.3 l-5.3 -20.1" stroke="#e7b24a" stroke-width="2.5" stroke-linecap="round"/><path d="M281.6 209.0 l-6.2 -27.8" stroke="#b07a22" stroke-width="2.5" stroke-linecap="round"/><path d="M174.6 294.8 l-3.3 -25.3" stroke="#e7b24a" stroke-width="3.0" stroke-linecap="round"/><path d="M163.0 344.1 l9.1 -12.6" stroke="#e7b24a" stroke-width="2.2" stroke-linecap="round"/><path d="M354.8 240.6 l2.4 -20.1" stroke="#e7b24a" stroke-width="2.4" stroke-linecap="round"/><path d="M222.1 289.2 l1.2 -16.5" stroke="#e7b24a" stroke-width="2.2" stroke-linecap="round"/><path d="M238.7 328.3 l13.2 -16.7" stroke="#b07a22" stroke-width="1.8" stroke-linecap="round"/><path d="M405.2 339.4 l-10.2 -19.2" stroke="#b07a22" stroke-width="2.9" stroke-linecap="round"/><path d="M201.8 253.1 l5.8 -18.9" stroke="#e7b24a" stroke-width="2.6" stroke-linecap="round"/><path d="M391.6 349.8 l0.3 -22.3" stroke="#c08a2c" stroke-width="2.3" stroke-linecap="round"/><path d="M179.6 281.4 l7.8 -17.1" stroke="#c08a2c" stroke-width="3.1" stroke-linecap="round"/><path d="M261.8 208.1 l7.2 -26.6" stroke="#b07a22" stroke-width="2.0" stroke-linecap="round"/><path d="M190.5 295.6 l12.6 -21.2" stroke="#c08a2c" stroke-width="2.7" stroke-linecap="round"/><path d="M185.9 257.3 l1.4 -27.7" stroke="#b07a22" stroke-width="2.7" stroke-linecap="round"/><path d="M269.6 169.2 l7.2 -23.2" stroke="#fbe28c" stroke-width="2.0" stroke-linecap="round"/><path d="M363.3 341.9 l2.1 -18.0" stroke="#c08a2c" stroke-width="2.5" stroke-linecap="round"/><path d="M148.3 264.5 l17.3 -20.8" stroke="#e7b24a" stroke-width="2.5" stroke-linecap="round"/><path d="M175.2 367.3 l2.8 -14.3" stroke="#fbe28c" stroke-width="2.3" stroke-linecap="round"/><path d="M213.9 314.1 l6.3 -12.7" stroke="#fbe28c" stroke-width="1.8" stroke-linecap="round"/><path d="M161.4 281.7 l0.4 -22.5" stroke="#fbe28c" stroke-width="2.7" stroke-linecap="round"/><path d="M217.4 313.7 l3.0 -22.2" stroke="#c08a2c" stroke-width="1.8" stroke-linecap="round"/><path d="M317.1 237.4 l8.7 -26.8" stroke="#b07a22" stroke-width="3.1" stroke-linecap="round"/><path d="M313.3 341.1 l-9.2 -11.1" stroke="#e7b24a" stroke-width="3.1" stroke-linecap="round"/><path d="M243.3 222.5 l9.8 -12.7" stroke="#b07a22" stroke-width="2.0" stroke-linecap="round"/><path d="M226.5 219.2 l6.0 -21.0" stroke="#fbe28c" stroke-width="3.0" stroke-linecap="round"/><path d="M331.8 319.6 l-1.0 -18.2" stroke="#fbe28c" stroke-width="2.0" stroke-linecap="round"/><path d="M256.9 300.3 l-10.2 -27.1" stroke="#e7b24a" stroke-width="3.2" stroke-linecap="round"/><path d="M379.0 259.4 l2.7 -22.1" stroke="#e7b24a" stroke-width="2.9" stroke-linecap="round"/><path d="M278.6 259.6 l11.5 -23.8" stroke="#fbe28c" stroke-width="2.8" stroke-linecap="round"/><path d="M258.6 240.5 l3.6 -25.7" stroke="#e7b24a" stroke-width="2.0" stroke-linecap="round"/><path d="M288.7 273.6 l4.5 -21.2" stroke="#c08a2c" stroke-width="2.6" stroke-linecap="round"/><path d="M240.0 268.5 l13.1 -18.1" stroke="#e7b24a" stroke-width="1.8" stroke-linecap="round"/><path d="M174.5 257.4 l16.4 -21.5" stroke="#b07a22" stroke-width="1.9" stroke-linecap="round"/><path d="M268.0 223.7 l-12.2 -12.2" stroke="#fbe28c" stroke-width="1.9" stroke-linecap="round"/><path d="M332.8 250.2 l1.5 -16.5" stroke="#e7b24a" stroke-width="2.9" stroke-linecap="round"/><path d="M131.3 313.2 l13.1 -21.5" stroke="#b07a22" stroke-width="2.0" stroke-linecap="round"/><path d="M287.0 255.6 l-0.1 -16.6" stroke="#e7b24a" stroke-width="2.3" stroke-linecap="round"/><path d="M314.9 350.7 l-17.3 -20.1" stroke="#e7b24a" stroke-width="2.4" stroke-linecap="round"/><path d="M328.9 327.5 l6.0 -17.7" stroke="#b07a22" stroke-width="2.1" stroke-linecap="round"/><path d="M303.6 352.4 l7.1 -23.2" stroke="#e7b24a" stroke-width="2.9" stroke-linecap="round"/><path d="M327.5 254.4 l-1.9 -23.7" stroke="#e7b24a" stroke-width="2.0" stroke-linecap="round"/><path d="M230.7 176.9 l-3.0 -25.1" stroke="#b07a22" stroke-width="2.9" stroke-linecap="round"/><path d="M237.7 187.5 l8.2 -15.2" stroke="#e7b24a" stroke-width="2.1" stroke-linecap="round"/><path d="M301.6 355.8 l5.0 -13.6" stroke="#e7b24a" stroke-width="2.1" stroke-linecap="round"/><path d="M286.7 290.5 l-9.4 -12.7" stroke="#e7b24a" stroke-width="2.7" stroke-linecap="round"/><path d="M353.1 306.9 l-11.0 -12.9" stroke="#e7b24a" stroke-width="2.4" stroke-linecap="round"/><path d="M130.6 343.6 l19.3 -16.4" stroke="#fbe28c" stroke-width="2.9" stroke-linecap="round"/><path d="M258.4 196.3 l-21.0 -18.2" stroke="#c08a2c" stroke-width="2.0" stroke-linecap="round"/><path d="M181.5 203.1 l-8.5 -21.4" stroke="#e7b24a" stroke-width="2.6" stroke-linecap="round"/><path d="M342.7 259.8 l-14.5 -19.9" stroke="#e7b24a" stroke-width="2.7" stroke-linecap="round"/><path d="M324.8 283.7 l-7.2 -16.0" stroke="#b07a22" stroke-width="2.3" stroke-linecap="round"/><path d="M318.4 335.9 l1.5 -21.4" stroke="#fbe28c" stroke-width="2.5" stroke-linecap="round"/><path d="M183.2 313.4 l1.9 -17.4" stroke="#c08a2c" stroke-width="1.9" stroke-linecap="round"/><path d="M370.5 273.4 l6.5 -20.0" stroke="#e7b24a" stroke-width="3.1" stroke-linecap="round"/><path d="M191.3 249.3 l7.6 -15.9" stroke="#e7b24a" stroke-width="2.7" stroke-linecap="round"/><path d="M155.3 229.0 l-6.1 -14.7" stroke="#b07a22" stroke-width="2.6" stroke-linecap="round"/><path d="M161.5 309.6 l-9.3 -23.4" stroke="#fbe28c" stroke-width="2.8" stroke-linecap="round"/><path d="M209.1 321.1 l3.0 -19.9" stroke="#fbe28c" stroke-width="1.9" stroke-linecap="round"/><path d="M170.6 298.0 l-2.7 -17.6" stroke="#b07a22" stroke-width="2.2" stroke-linecap="round"/><path d="M274.7 220.4 l4.8 -19.0" stroke="#c08a2c" stroke-width="1.9" stroke-linecap="round"/><path d="M138.8 283.5 l4.6 -16.9" stroke="#b07a22" stroke-width="2.5" stroke-linecap="round"/><path d="M247.1 318.8 l8.3 -22.0" stroke="#b07a22" stroke-width="2.0" stroke-linecap="round"/><path d="M362.0 278.9 l14.3 -24.8" stroke="#e7b24a" stroke-width="2.2" stroke-linecap="round"/><path d="M274.1 198.4 l-5.8 -25.1" stroke="#fbe28c" stroke-width="2.5" stroke-linecap="round"/><path d="M199.6 318.8 l-4.0 -17.9" stroke="#fbe28c" stroke-width="2.1" stroke-linecap="round"/><path d="M344.5 227.1 l-8.4 -14.1" stroke="#e7b24a" stroke-width="2.5" stroke-linecap="round"/><path d="M207.2 212.7 l4.3 -18.1" stroke="#c08a2c" stroke-width="2.8" stroke-linecap="round"/><path d="M274.5 184.4 l-12.8 -19.5" stroke="#b07a22" stroke-width="2.7" stroke-linecap="round"/><path d="M380.5 313.8 l6.9 -28.4" stroke="#fbe28c" stroke-width="2.1" stroke-linecap="round"/></g>
	<path d="M120 196 q14 -26 30 -12 M196 160 q10 -26 24 -10 M360 190 q16 -22 28 -4 M150 178 q-8 -24 8 -26" stroke="#fbe28c" stroke-width="3" fill="none" stroke-linecap="round"/>
	<path d="M239.6 374.2 l19.6 -2.5" stroke="#fbe28c" stroke-width="2.4" stroke-linecap="round"/><path d="M241.9 380.0 l-22.5 -2.3" stroke="#e7b24a" stroke-width="2.4" stroke-linecap="round"/><path d="M71.0 385.0 l-13.0 -3.9" stroke="#fbe28c" stroke-width="2.4" stroke-linecap="round"/><path d="M270.4 385.6 l2.8 -5.5" stroke="#e7b24a" stroke-width="2.4" stroke-linecap="round"/><path d="M91.9 374.8 l7.2 -5.7" stroke="#e7b24a" stroke-width="2.4" stroke-linecap="round"/><path d="M285.7 369.9 l-19.2 -4.4" stroke="#e7b24a" stroke-width="2.4" stroke-linecap="round"/><path d="M433.1 386.3 l-9.8 -4.5" stroke="#e7b24a" stroke-width="2.4" stroke-linecap="round"/><path d="M224.8 387.3 l16.4 -1.2" stroke="#e7b24a" stroke-width="2.4" stroke-linecap="round"/><path d="M142.1 384.3 l1.9 -4.9" stroke="#fbe28c" stroke-width="2.4" stroke-linecap="round"/><path d="M100.2 369.9 l5.9 -4.6" stroke="#fbe28c" stroke-width="2.4" stroke-linecap="round"/><path d="M259.6 375.3 l16.7 -3.2" stroke="#fbe28c" stroke-width="2.4" stroke-linecap="round"/><path d="M74.3 383.1 l19.8 -3.0" stroke="#e7b24a" stroke-width="2.4" stroke-linecap="round"/><path d="M189.4 381.4 l23.6 -3.1" stroke="#fbe28c" stroke-width="2.4" stroke-linecap="round"/><path d="M251.1 386.9 l-2.0 -5.1" stroke="#e7b24a" stroke-width="2.4" stroke-linecap="round"/><path d="M106.9 378.6 l20.9 -1.4" stroke="#e7b24a" stroke-width="2.4" stroke-linecap="round"/><path d="M321.7 377.3 l12.2 -5.5" stroke="#e7b24a" stroke-width="2.4" stroke-linecap="round"/><path d="M403.5 385.0 l19.9 -2.9" stroke="#e7b24a" stroke-width="2.4" stroke-linecap="round"/><path d="M223.4 374.6 l-5.2 -7.3" stroke="#e7b24a" stroke-width="2.4" stroke-linecap="round"/>
	<path d="M286 100 C250 52 196 70 206 112 C214 148 178 170 146 150 C126 138 116 156 124 178" stroke="#d8343a" stroke-width="5" fill="none" stroke-linecap="round"/>
		<path d="M286 100 C306 96 318 78 306 64 C298 56 290 66 298 74" stroke="#d8343a" stroke-width="5" fill="none" stroke-linecap="round"/>
	<circle cx="296" cy="72" r="18" fill="#ffffff" opacity="0.6" filter="url(#shine)"/>
	<path transform="translate(300 70) scale(1.1)" d="M0 -16 Q2 -2 16 0 Q2 2 0 16 Q-2 2 -16 0 Q-2 -2 0 -16 Z" fill="#ffffff"/><path transform="translate(214 210) scale(0.6)" d="M0 -16 Q2 -2 16 0 Q2 2 0 16 Q-2 2 -16 0 Q-2 -2 0 -16 Z" fill="#ffffff"/><path transform="translate(372 150) scale(0.7)" d="M0 -16 Q2 -2 16 0 Q2 2 0 16 Q-2 2 -16 0 Q-2 -2 0 -16 Z" fill="#ffffff"/>
	<g><rect x="400" y="320" width="84" height="54" rx="8" fill="#e2ac48"/><path d="M400 336 H484 M400 358 H484" stroke="#b07a22" stroke-width="3"/><path d="M424 320 V374 M458 320 V374" stroke="#8a5a1c" stroke-width="4"/></g>
	
	<g font-family="DejaVu Sans, Liberation Sans, sans-serif" font-weight="bold" text-anchor="middle">
		<rect x="98" y="390" width="316" height="62" rx="31" fill="#141c48" fill-opacity="0.92" stroke="#f6c85c" stroke-width="4"/>
		<text x="256" y="432" font-size="27" fill="#ffffff" letter-spacing="1.5">HAY &amp; NEEDLE</text>
		<rect x="177.25" y="370" width="157.5" height="26" rx="13" fill="#f6c85c"/>
		<text x="256" y="388.5" font-size="13" fill="#141c48" letter-spacing="1.5">MOUNTAIN SKIN</text>
	</g>
</svg>